<svg width="154" height="113" viewBox="0 0 154 113" fill="none" xmlns="http://www.w3.org/2000/svg">
<path d="M42.208 69L35.548 42.72H39.544L43.756 60.216C44.02 61.248 44.248 62.28 44.44 63.312C44.656 64.32 44.812 65.112 44.908 65.688C45.004 65.112 45.136 64.32 45.304 63.312C45.496 62.28 45.724 61.236 45.988 60.18L50.164 42.72H54.052L47.356 69H42.208ZM66.3859 69.36C64.7539 69.36 63.3379 69.06 62.1379 68.46C60.9619 67.836 60.0499 66.948 59.4019 65.796C58.7779 64.62 58.4659 63.252 58.4659 61.692V50.028C58.4659 48.444 58.7779 47.076 59.4019 45.924C60.0499 44.772 60.9619 43.896 62.1379 43.296C63.3379 42.672 64.7539 42.36 66.3859 42.36C68.0179 42.36 69.4219 42.672 70.5979 43.296C71.7979 43.896 72.7099 44.772 73.3339 45.924C73.9819 47.076 74.3059 48.432 74.3059 49.992V61.692C74.3059 63.252 73.9819 64.62 73.3339 65.796C72.7099 66.948 71.7979 67.836 70.5979 68.46C69.4219 69.06 68.0179 69.36 66.3859 69.36ZM66.3859 65.904C67.7059 65.904 68.7019 65.544 69.3739 64.824C70.0699 64.08 70.4179 63.036 70.4179 61.692V50.028C70.4179 48.66 70.0699 47.616 69.3739 46.896C68.7019 46.176 67.7059 45.816 66.3859 45.816C65.0899 45.816 64.0939 46.176 63.3979 46.896C62.7019 47.616 62.3539 48.66 62.3539 50.028V61.692C62.3539 63.036 62.7019 64.08 63.3979 64.824C64.0939 65.544 65.0899 65.904 66.3859 65.904ZM86.0279 69V46.284H79.0079V42.684H96.9359V46.284H89.9159V69H86.0279ZM102.142 69V42.72H117.586V46.176H105.958V53.628H116.326V57.048H105.958V65.544H117.586V69H102.142Z" fill="black"/>
<path d="M137.429 23.0431V113H154V2.2157H137.65V9.9706C126.603 3.32353 115.85 0 105.392 0C91.693 0 82.1186 3.76667 76.6686 11.3C74.1645 9.82288 71.2922 8.41962 68.0517 7.09021C64.8111 5.61308 61.4232 4.35752 57.8881 3.32353C54.2056 2.28955 50.5968 1.47713 47.0617 0.886281C43.5265 0.29543 40.286 0 37.34 0C29.9751 0 23.9359 0.960136 19.2224 2.8804C14.3616 4.65295 10.5318 7.68106 7.73314 11.9647C4.78719 16.1007 2.79868 21.7137 1.76759 28.8039C0.589202 35.7464 0 44.3137 0 54.5059V113H16.571V54.949C16.571 47.268 16.8656 40.8425 17.4548 35.6726C18.044 30.5026 19.2224 26.3667 20.99 23.2647C22.6102 20.1627 24.967 18.0209 28.0603 16.8392C31.0062 15.5098 34.9096 14.8451 39.7704 14.8451C44.6313 14.8451 49.6394 15.5837 54.7948 17.0608C59.9503 18.3902 63.9273 19.7196 66.726 21.049L70.924 23.0431C69.0091 27.7699 68.0517 38.5529 68.0517 55.3922V113H84.6227V55.8353C84.6227 47.8588 84.9173 41.2856 85.5065 36.1157C86.0956 30.798 87.274 26.5882 89.0416 23.4863C90.6619 20.2366 93.0187 18.0209 96.1119 16.8392C99.0579 15.5098 102.961 14.8451 107.822 14.8451C112.536 14.8451 117.396 15.5837 122.405 17.0608C127.265 18.3902 131.022 19.7196 133.673 21.049L137.429 23.0431Z" fill="black" fill-opacity="0.26"/>
</svg>
